<?xml version="1.0" encoding="UTF-8"?>
<!DOCTYPE svg PUBLIC "-//W3C//DTD SVG 1.1//EN" "http://www.w3.org/Graphics/SVG/1.1/DTD/svg11.dtd">
<svg xmlns="http://www.w3.org/2000/svg" version="1.1" width="512px" height="512px" style="shape-rendering:geometricPrecision; text-rendering:geometricPrecision; image-rendering:optimizeQuality; fill-rule:evenodd; clip-rule:evenodd" xmlns:xlink="http://www.w3.org/1999/xlink">
<g><path style="opacity:0.995" fill="#cb000f" d="M 31.5,111.5 C 180.833,111.5 330.167,111.5 479.5,111.5C 479.5,207.5 479.5,303.5 479.5,399.5C 330.167,399.5 180.833,399.5 31.5,399.5C 31.5,303.5 31.5,207.5 31.5,111.5 Z"/></g>
<g><path style="opacity:1" fill="#fefcfd" d="M 216.5,169.5 C 249.219,167.896 276.552,179.063 298.5,203C 261.588,181.344 228.088,185.844 198,216.5C 177.869,244.322 176.202,273.322 193,303.5C 214.964,333.266 243.797,343.1 279.5,333C 286.129,330.181 292.463,327.181 298.5,324C 269.874,354.074 235.541,363.408 195.5,352C 150.124,332.558 129.624,298.058 134,248.5C 144.106,203.893 171.606,177.559 216.5,169.5 Z"/></g>
<g><path style="opacity:1" fill="#fefafa" d="M 318.5,218.5 C 325.785,226.452 333.452,234.119 341.5,241.5C 351.231,237.218 360.731,232.551 370,227.5C 365.374,236.916 360.541,246.416 355.5,256C 362.13,264.55 369.463,272.55 377.5,280C 366.936,278.633 356.436,276.8 346,274.5C 340.667,283.833 335.333,293.167 330,302.5C 328.606,291.807 327.106,281.14 325.5,270.5C 314.756,269.179 304.089,267.346 293.5,265C 302.68,260.244 312.014,255.744 321.5,251.5C 321.833,250.333 322.167,249.167 322.5,248C 321.328,238.135 319.994,228.302 318.5,218.5 Z"/></g>
</svg>
